<svg xmlns="http://www.w3.org/2000/svg" viewBox="0 0 129.73 38.35"><defs><style>.e{fill:#fefbed;}</style></defs><g id="a"></g><g id="b"><g id="c"><g><g id="d"><path class="e" d="M95.44,24.36c-1.46,0-2.24-1.04-2.24-5.45s.78-5.45,2.24-5.45,2.24,1.04,2.24,5.45-.78,5.45-2.24,5.45m0-12.82c-4.81,0-7.37,2.56-7.37,7.37s2.56,7.37,7.37,7.37,7.37-2.56,7.37-7.37-2.56-7.37-7.37-7.37Z"></path><polygon class="e" points="79.73 25.96 84.86 25.96 84.86 5.13 79.73 6.09 79.73 25.96"></polygon><path class="e" d="M116.91,11.54c-4.49,0-5.75,2.24-5.76,2.24v-2.24l-5.13,.96v13.46h5.13v-8.01c0-4.17,4.48-4.16,5.76-4.16v-2.24Z"></path><path class="e" d="M70.76,11.86v7.69c0,3.55-.78,4.81-2.24,4.81s-2.24-1.25-2.24-4.81v-7.69h-11.54c0-4.49,2.56-4.49,6.41-4.49v-2.24c-.68,0-3.56,.01-4.17,.01-7.37,0-7.37,4.8-7.37,6.72v14.1h5.13V14.11h6.41v4.81c0,4.81,2.56,7.37,7.37,7.37s7.37-2.56,7.37-7.37v-7.05h-5.13Z"></path><path class="e" d="M124.6,18.59v1.6c0,1.84-.64,3.2-2.56,3.2-1.28,0-1.92-1.2-1.92-2.56,0-3.21,3.2-3.21,4.49-3.21v.96Zm-2.88-7.05h-1.6v2.24s4.49,0,4.49,2.24h0c-2.3,.01-8.99,.25-8.97,5.45,0,3.2,2.33,4.75,4.81,4.8,1.73,.04,3.32-.98,4.17-2.65v2.33h5.13v-7.37c0-5.13-2.24-7.05-8.01-7.05Z"></path><rect class="e" x="75.74" y="32.97" width=".35" height="4.24"></rect><rect class="e" x="105.17" y="32.97" width=".35" height="4.24"></rect><path class="e" d="M50.27,33.39h.56v3.4h-.56v-3.4Zm.23,0h1.95v.54h-1.95v-.54Zm0,1.48h1.7v.53h-1.7v-.53Z"></path><path class="e" d="M53.8,33.39h.56v3.4h-.56v-3.4Zm.26,2.86h1.97v.54h-1.97v-.54Z"></path><path class="e" d="M57.76,36.67c-.18-.1-.33-.25-.43-.44-.1-.19-.15-.41-.15-.66v-.96c0-.25,.05-.47,.15-.66,.1-.19,.24-.34,.43-.44,.18-.1,.4-.16,.64-.16s.45,.05,.64,.16c.18,.1,.33,.25,.43,.44,.1,.19,.15,.41,.15,.66v.96c0,.25-.05,.47-.15,.66-.1,.19-.24,.34-.43,.44-.18,.1-.4,.16-.64,.16s-.46-.05-.64-.16m.98-.48c.1-.06,.17-.14,.23-.24,.05-.1,.08-.22,.08-.36v-1c0-.14-.03-.26-.08-.36-.05-.1-.13-.18-.23-.24-.1-.06-.21-.08-.34-.08s-.24,.03-.34,.08c-.1,.06-.17,.14-.23,.24-.05,.1-.08,.22-.08,.36v1c0,.14,.03,.26,.08,.36,.05,.1,.13,.18,.23,.24,.1,.06,.21,.08,.34,.08s.24-.03,.34-.08Z"></path><path class="e" d="M61.09,33.39h.56v3.4h-.56v-3.4Zm.23,1.46h1.17c.08,0,.15-.02,.21-.06,.06-.04,.11-.09,.14-.16,.03-.07,.05-.15,.05-.25,0-.09-.02-.17-.05-.24-.03-.07-.08-.12-.14-.16-.06-.04-.13-.06-.21-.06h-1.17v-.53h1.19c.19,0,.36,.04,.51,.12,.14,.08,.26,.2,.34,.35,.08,.15,.12,.33,.12,.52s-.04,.37-.12,.53c-.08,.15-.19,.27-.34,.35-.15,.08-.31,.12-.5,.12h-1.19v-.54Zm.82,.43l.58-.11,.89,1.61h-.67l-.8-1.51Z"></path><path class="e" d="M65.02,33.39h.56v3.4h-.56v-3.4Zm.23,0h2v.54h-2v-.54Zm0,1.44h1.74v.53h-1.74v-.53Zm0,1.42h2v.54h-2v-.54Z"></path><path class="e" d="M69.25,36.78c-.15-.03-.29-.08-.42-.14-.13-.06-.25-.14-.36-.23l.3-.45c.13,.11,.28,.19,.44,.25,.16,.06,.34,.09,.52,.09,.23,0,.4-.04,.53-.12,.12-.08,.19-.2,.19-.34h0c0-.11-.03-.19-.08-.25-.06-.06-.13-.11-.22-.13-.09-.03-.21-.06-.35-.08h-.07c-.23-.05-.41-.09-.56-.14-.15-.05-.27-.14-.37-.28-.1-.13-.15-.32-.15-.56h0c0-.22,.05-.4,.15-.55,.1-.15,.24-.27,.42-.35,.18-.08,.4-.12,.66-.12,.12,0,.24,.01,.37,.04,.12,.03,.24,.07,.36,.12,.12,.05,.23,.12,.34,.2l-.27,.46c-.13-.09-.26-.17-.4-.21-.14-.05-.27-.07-.4-.07-.21,0-.38,.04-.5,.12-.12,.08-.18,.19-.18,.33h0c0,.11,.03,.19,.09,.26,.06,.06,.14,.11,.23,.14,.09,.03,.22,.06,.38,.09h.06l.03,.02c.21,.04,.39,.09,.53,.15,.14,.06,.26,.15,.35,.29,.09,.13,.14,.31,.14,.53h0c0,.22-.05,.4-.15,.55-.1,.15-.24,.27-.43,.35-.19,.08-.42,.12-.69,.12-.16,0-.32-.02-.47-.05"></path><path class="e" d="M83.81,33.39h.41l1.28,3.4h-.6l-.88-2.53-.88,2.53h-.6l1.28-3.4Zm-.68,2.22h1.79v.54h-1.79v-.54Z"></path><path class="e" d="M86.76,33.39h.56v3.4h-.56v-3.4Zm.23,0h1.95v.54h-1.95v-.54Zm0,1.48h1.7v.53h-1.7v-.53Z"></path><path class="e" d="M90.28,33.39h.56v3.4h-.56v-3.4Zm.23,0h2v.54h-2v-.54Zm0,1.44h1.74v.53h-1.74v-.53Zm0,1.42h2v.54h-2v-.54Z"></path><path class="e" d="M93.57,33.39h2.45v.54h-2.45v-.54Zm.94,.28h.56v3.12h-.56v-3.12Z"></path><path class="e" d="M97.65,36.67c-.18-.1-.33-.25-.43-.44-.1-.19-.15-.41-.15-.66v-.96c0-.25,.05-.47,.15-.66,.1-.19,.24-.34,.43-.44,.18-.1,.4-.16,.64-.16s.45,.05,.64,.16c.18,.1,.33,.25,.43,.44,.1,.19,.15,.41,.15,.66v.96c0,.25-.05,.47-.15,.66-.1,.19-.24,.34-.43,.44-.18,.1-.4,.16-.64,.16s-.45-.05-.64-.16m.98-.48c.1-.06,.17-.14,.23-.24,.05-.1,.08-.22,.08-.36v-1c0-.14-.03-.26-.08-.36-.05-.1-.13-.18-.23-.24-.1-.06-.21-.08-.34-.08s-.24,.03-.34,.08c-.1,.06-.17,.14-.23,.24-.05,.1-.08,.22-.08,.36v1c0,.14,.03,.26,.08,.36,.05,.1,.13,.18,.23,.24,.1,.06,.21,.08,.34,.08s.24-.03,.34-.08Z"></path><path class="e" d="M111.47,33.39h.56v3.4h-.56v-3.4Zm.32,2.86h.79c.23,0,.41-.06,.54-.17,.13-.11,.19-.28,.19-.49v-1c0-.21-.06-.38-.19-.49-.13-.12-.31-.17-.54-.17h-.79v-.54h.78c.28,0,.52,.05,.71,.14,.2,.1,.35,.23,.45,.42,.1,.18,.15,.4,.15,.66v.96c0,.25-.05,.47-.15,.65-.1,.18-.25,.32-.45,.42-.2,.1-.44,.15-.72,.15h-.78v-.54Z"></path><path class="e" d="M115.36,33.39h.56v3.4h-.56v-3.4Zm.23,0h2v.54h-2v-.54Zm0,1.44h1.74v.53h-1.74v-.53Zm0,1.42h2v.54h-2v-.54Z"></path><path class="e" d="M119.52,36.67c-.18-.1-.32-.25-.42-.44-.1-.19-.15-.41-.15-.67v-.93c0-.26,.05-.49,.15-.68,.1-.19,.24-.34,.42-.44,.18-.1,.4-.15,.64-.15,.2,0,.39,.04,.56,.13,.17,.09,.3,.21,.41,.38,.11,.17,.18,.36,.23,.58h-.58c-.03-.11-.07-.21-.13-.29-.06-.08-.13-.14-.22-.19-.08-.04-.17-.06-.27-.06-.13,0-.24,.03-.34,.09-.09,.06-.17,.14-.22,.25-.05,.11-.08,.24-.08,.38v.93c0,.15,.03,.27,.08,.38,.05,.11,.12,.19,.22,.25,.1,.06,.21,.09,.34,.09,.1,0,.19-.02,.27-.06,.08-.04,.16-.1,.22-.19,.06-.08,.1-.18,.13-.29h.58c-.04,.23-.12,.42-.23,.58-.11,.16-.25,.29-.41,.38-.17,.09-.35,.13-.55,.13-.25,0-.46-.05-.64-.15"></path><path class="e" d="M123.2,36.67c-.18-.1-.33-.25-.43-.44-.1-.19-.15-.41-.15-.66v-.96c0-.25,.05-.47,.15-.66,.1-.19,.24-.34,.43-.44,.18-.1,.4-.16,.64-.16s.45,.05,.64,.16c.18,.1,.33,.25,.43,.44,.1,.19,.15,.41,.15,.66v.96c0,.25-.05,.47-.15,.66-.1,.19-.24,.34-.43,.44-.18,.1-.4,.16-.64,.16s-.45-.05-.64-.16m.98-.48c.1-.06,.17-.14,.23-.24,.05-.1,.08-.22,.08-.36v-1c0-.14-.03-.26-.08-.36-.05-.1-.13-.18-.23-.24-.1-.06-.21-.08-.34-.08s-.24,.03-.34,.08c-.1,.06-.17,.14-.23,.24-.05,.1-.08,.22-.08,.36v1c0,.14,.03,.26,.08,.36,.05,.1,.13,.18,.23,.24,.1,.06,.21,.08,.34,.08s.24-.03,.34-.08Z"></path><path class="e" d="M126.54,33.39h.56v3.4h-.56v-3.4Zm.23,1.46h1.17c.08,0,.15-.02,.21-.06,.06-.04,.11-.09,.14-.16,.03-.07,.05-.15,.05-.25,0-.09-.02-.17-.05-.24-.03-.07-.08-.12-.14-.16-.06-.04-.13-.06-.21-.06h-1.17v-.53h1.19c.19,0,.36,.04,.5,.12,.15,.08,.26,.2,.34,.35,.08,.15,.12,.33,.12,.52s-.04,.37-.12,.53c-.08,.15-.19,.27-.34,.35-.15,.08-.31,.12-.5,.12h-1.19v-.54Zm.82,.43l.58-.11,.89,1.61h-.67l-.8-1.51Z"></path></g><path class="e" d="M38.35,19.18c0-.29,0-.58-.02-.86l-6.38,2.64c-.38,.16-.8-.12-.8-.53v-2.98c0-.73,.4-1.4,1.06-1.71,1.93-.93,3.26-2.9,3.26-5.18,0-.76-.15-1.48-.41-2.14-1.11,.08-2.13,.47-2.98,1.09,.02-1.81-.82-3.58-2.36-4.7-.58,.42-1.08,.95-1.49,1.6-.6,.97-.89,2.05-.87,3.11-.85-.62-1.87-1.01-2.98-1.09-.27,.66-.41,1.38-.41,2.14,0,2.28,1.33,4.25,3.26,5.18,.65,.31,1.06,.99,1.06,1.71v4.12c0,.55-.33,1.05-.85,1.27l-5.5,2.28c-.63,.26-1.33-.2-1.33-.89V.05c-.47-.04-.95-.05-1.44-.05s-.96,.02-1.44,.05V9.69c0,.68-.69,1.15-1.33,.89l-3.09-1.28c-3.06-1.27-5.83-2.42-8.04-3.33-.69,.72-1.32,1.5-1.89,2.33l13.76,5.7c.36,.15,.59,.5,.59,.89v9.33c0,.68-.69,1.15-1.33,.89l-4.18-1.73c-.67-.28-1.14-.91-1.18-1.63-.12-2.14-1.43-4.12-3.54-4.99-.7-.29-1.42-.43-2.14-.44-.35,1.06-.38,2.15-.13,3.17-1.66-.71-3.62-.62-5.25,.38,.17,.69,.47,1.37,.91,1.98,.66,.93,1.55,1.6,2.54,2-.9,.55-1.65,1.34-2.15,2.33,.51,.5,1.12,.91,1.82,1.2,2.11,.87,4.44,.4,6.03-1.03,.54-.48,1.32-.6,1.99-.32l6.01,2.49c.36,.15,.59,.5,.59,.89v8.9c.47,.04,.96,.05,1.44,.05s.96-.02,1.44-.05v-8.89c0-.39,.23-.74,.59-.89l17.01-7.04c.09-.75,.14-1.52,.14-2.3"></path></g></g></g></svg>